<?xml version="1.0" standalone="no"?>
<!DOCTYPE svg PUBLIC "-//W3C//DTD SVG 20010904//EN"
 "http://www.w3.org/TR/2001/REC-SVG-20010904/DTD/svg10.dtd">
<svg version="1.0" xmlns="http://www.w3.org/2000/svg"
 width="1600.000000pt" height="1600.000000pt" viewBox="0 0 1600.000000 1600.000000"
 preserveAspectRatio="xMidYMid meet">
<metadata>
Created by potrace 1.11, written by Peter Selinger 2001-2013
</metadata>
<g transform="translate(0.000000,1600.000000) scale(0.100000,-0.100000)"
fill="#000000" stroke="none">
<path d="M9189 13563 c-35 -7 -88 -25 -118 -40 -71 -35 -160 -119 -193 -180
-19 -36 -512 -1488 -533 -1573 -7 -26 -216 -653 -230 -690 -14 -35 -322 -962
-330 -990 -2 -8 -69 -211 -150 -450 -80 -239 -147 -442 -149 -450 -4 -17 -367
-1105 -1363 -4095 -665 -1997 -677 -2031 -676 -2107 0 -102 40 -190 114 -248
88 -70 111 -73 479 -73 223 0 339 4 370 13 107 29 208 104 269 199 29 46 154
419 2156 6436 435 1309 903 2715 1040 3125 263 789 266 803 238 899 -29 100
-91 169 -190 213 -46 21 -63 22 -359 23 -219 1 -330 -3 -375 -12z"/>
<path d="M3100 11762 c-58 -7 -138 -35 -188 -65 -36 -22 -83 -67 -145 -142
-51 -60 -154 -184 -230 -275 -165 -197 -160 -191 -217 -260 -24 -30 -51 -62
-60 -71 -8 -9 -22 -25 -30 -35 -28 -35 -415 -499 -420 -504 -3 -3 -61 -72
-130 -155 -69 -82 -132 -159 -141 -170 -10 -11 -58 -69 -109 -130 -50 -60 -99
-119 -108 -130 -10 -11 -55 -65 -101 -120 -45 -55 -90 -109 -100 -120 -29 -35
-215 -259 -236 -284 -11 -13 -25 -29 -30 -35 -6 -6 -66 -78 -135 -161 -68 -82
-129 -155 -135 -161 -5 -6 -127 -153 -271 -325 -294 -354 -299 -362 -299 -499
0 -129 12 -152 213 -394 96 -116 183 -220 193 -231 11 -11 47 -54 82 -96 34
-41 81 -97 103 -125 89 -106 203 -242 279 -334 44 -53 151 -182 238 -286 87
-104 166 -198 175 -209 174 -208 503 -602 544 -650 9 -11 137 -164 283 -340
147 -176 277 -331 289 -345 12 -14 86 -104 166 -200 79 -96 147 -177 150 -180
3 -3 30 -34 60 -70 72 -85 68 -81 120 -117 118 -80 275 -88 390 -20 34 20 175
135 335 274 87 75 136 145 162 233 21 69 21 183 0 233 -13 31 -63 99 -112 153
-30 32 -164 191 -220 260 -22 27 -56 67 -76 89 -19 22 -94 110 -165 195 -198
237 -617 734 -629 746 -5 6 -28 32 -50 59 -22 27 -56 67 -75 90 -20 22 -69 81
-110 130 -41 50 -77 92 -80 95 -5 5 -33 39 -190 225 -46 55 -87 102 -90 105
-3 3 -15 17 -26 32 -12 15 -41 51 -66 80 -25 29 -146 172 -269 318 -123 146
-227 268 -231 271 -7 4 58 98 82 119 3 3 102 122 219 265 117 143 223 271 235
285 18 22 39 48 128 155 56 69 417 508 447 544 20 24 41 49 46 55 6 6 28 34
50 61 21 28 49 61 62 75 12 14 142 171 288 350 318 388 321 391 410 500 39 47
135 163 214 258 78 95 152 194 164 220 16 35 21 68 22 128 0 129 -26 169 -265
401 -169 164 -203 193 -251 211 -58 21 -115 30 -159 24z"/>
<path d="M12550 11755 c-61 -17 -111 -40 -135 -62 -11 -10 -99 -84 -195 -165
-96 -81 -186 -163 -198 -182 -73 -109 -101 -276 -62 -364 11 -24 185 -243 387
-488 202 -245 379 -460 393 -478 14 -18 131 -160 260 -316 129 -157 278 -339
333 -405 54 -66 106 -129 115 -140 10 -11 69 -83 132 -160 63 -77 122 -149
132 -160 9 -11 96 -117 193 -235 97 -118 184 -224 193 -235 9 -11 58 -70 109
-132 l92 -111 -22 -29 c-12 -15 -24 -30 -27 -33 -4 -3 -51 -59 -105 -125 -136
-167 -399 -487 -443 -540 -10 -11 -57 -69 -107 -130 -49 -60 -92 -112 -95
-115 -3 -3 -152 -183 -330 -400 -319 -389 -547 -666 -645 -785 -60 -72 -235
-284 -252 -305 -48 -60 -119 -146 -123 -150 -3 -3 -45 -53 -93 -112 -112 -137
-131 -178 -131 -283 0 -115 39 -192 135 -269 13 -10 49 -40 79 -65 221 -189
327 -274 359 -291 34 -17 52 -22 133 -34 40 -7 142 20 188 49 23 14 113 113
212 232 95 115 181 217 191 228 10 11 28 33 40 48 12 16 29 36 38 45 8 10 105
125 215 257 109 132 201 242 204 245 3 3 37 43 75 90 39 47 82 99 96 115 14
17 156 185 314 375 158 190 304 365 325 390 21 25 133 160 250 300 117 140
222 266 234 280 11 14 77 93 146 175 69 83 129 155 135 161 5 6 26 31 46 55
20 24 111 133 202 242 182 218 198 248 200 369 1 76 -7 122 -29 168 -13 26
-528 654 -730 890 -12 14 -73 86 -134 160 -62 74 -132 158 -155 185 -23 28
-59 70 -80 95 -20 25 -44 54 -53 65 -10 11 -62 74 -117 140 -55 66 -102 122
-105 125 -3 3 -86 102 -184 220 -199 239 -256 308 -271 324 -6 6 -30 36 -55
66 -25 30 -49 60 -55 66 -5 6 -26 30 -45 54 -19 24 -40 48 -45 54 -6 6 -42 49
-80 96 -38 47 -82 99 -96 115 -15 17 -107 127 -205 245 -98 118 -181 217 -184
220 -3 3 -25 30 -50 60 -25 30 -47 57 -50 60 -3 3 -25 30 -50 60 -63 78 -97
106 -165 140 -89 45 -175 56 -255 35z"/>
</g>
</svg>
