<svg width="2620" height="704" viewBox="0 0 2620 704" fill="none" xmlns="http://www.w3.org/2000/svg">
<g clip-path="url(#clip0_15999_2148)">
<g filter="url(#filter0_i_15999_2148)">
<path d="M95.3394 380.469L60.8792 283.624C57.4674 274.035 64.3751 263.864 74.197 264.183C252.621 269.963 344.397 331.106 336.043 515.039C306.315 389.346 163.733 380.469 95.3394 380.469Z" fill="#58E5BB"/>
</g>
<g filter="url(#filter1_i_15999_2148)">
<path d="M49.2593 222.7L13.1861 128.332C9.50139 118.693 16.4068 108.236 26.3764 108.336C207.166 110.142 334.515 117.234 334.515 355.746C304.787 230.053 117.653 222.7 49.2593 222.7Z" fill="#58E5BB"/>
</g>
<g filter="url(#filter2_i_15999_2148)">
<path d="M142.592 543.282L105.938 440.53C102.536 430.993 109.372 420.849 119.145 421.166C266.106 425.923 339.837 485.232 331.543 667.85C301.816 542.156 211.479 543.282 142.592 543.282Z" fill="#58E5BB"/>
</g>
<path d="M619.281 528L524.679 250.535L579.643 250.007L647.292 457.709L635.136 456.652L708.599 294.401H741.366L815.357 457.18L801.087 458.237L869.264 250.535H924.229L830.683 528H793.159L715.998 351.479L728.153 353.065L656.277 528H619.281ZM966.934 528V250.535H1021.37V528H966.934ZM993.359 189.229C981.732 189.229 972.748 186.234 966.406 180.244C960.064 174.254 956.893 165.798 956.893 154.876C956.893 144.658 960.064 136.378 966.406 130.036C973.1 123.694 982.085 120.523 993.359 120.523C1004.99 120.523 1013.97 123.518 1020.31 129.507C1026.66 135.497 1029.83 143.953 1029.83 154.876C1029.83 165.093 1026.48 173.373 1019.78 179.715C1013.44 186.057 1004.63 189.229 993.359 189.229ZM1062.76 528V250.535H1117.2V307.614L1107.69 313.956C1111.21 301.624 1118.08 290.349 1128.3 280.131C1138.52 269.561 1150.67 261.105 1164.76 254.763C1178.86 248.069 1193.3 244.722 1208.1 244.722C1229.24 244.722 1246.86 248.95 1260.95 257.406C1275.05 265.509 1285.62 278.017 1292.66 294.929C1299.71 311.842 1303.23 333.158 1303.23 358.879V528H1248.8V362.578C1248.8 346.723 1246.68 333.686 1242.45 323.469C1238.23 312.899 1231.71 305.323 1222.9 300.743C1214.09 295.81 1203.17 293.696 1190.13 294.401C1179.56 294.401 1169.87 296.163 1161.06 299.686C1152.26 302.857 1144.5 307.437 1137.81 313.427C1131.47 319.417 1126.36 326.464 1122.48 334.567C1118.96 342.319 1117.2 350.775 1117.2 359.936V528H1090.25C1085.66 528 1081.08 528 1076.5 528C1071.92 528 1067.34 528 1062.76 528ZM1476.97 533.285C1451.6 533.285 1428.87 527.119 1408.79 514.787C1389.06 502.103 1373.38 485.015 1361.75 463.522C1350.12 441.678 1344.31 416.838 1344.31 389.003C1344.31 361.169 1349.95 336.505 1361.22 315.013C1372.85 293.168 1388.53 276.079 1408.26 263.748C1427.99 251.064 1450.36 244.722 1475.38 244.722C1489.12 244.722 1502.33 247.012 1515.02 251.592C1528.05 255.82 1539.68 261.81 1549.9 269.561C1560.12 276.96 1568.04 285.24 1573.68 294.401C1579.67 303.209 1582.67 312.194 1582.67 321.355L1566.81 322.412V136.907H1621.25V528H1566.81V461.937H1577.38C1577.38 470.393 1574.56 478.849 1568.93 487.305C1563.29 495.409 1555.71 502.984 1546.2 510.031C1537.04 517.078 1526.29 522.715 1513.96 526.943C1501.98 531.171 1489.65 533.285 1476.97 533.285ZM1484.36 486.248C1500.92 486.248 1515.55 482.02 1528.23 473.564C1540.91 465.108 1550.78 453.657 1557.83 439.211C1565.23 424.413 1568.93 407.677 1568.93 389.003C1568.93 370.329 1565.23 353.77 1557.83 339.324C1550.78 324.526 1540.91 312.899 1528.23 304.443C1515.55 295.986 1500.92 291.758 1484.36 291.758C1467.81 291.758 1453.18 295.986 1440.5 304.443C1427.81 312.899 1417.77 324.526 1410.37 339.324C1403.33 353.77 1399.8 370.329 1399.8 389.003C1399.8 407.677 1403.33 424.413 1410.37 439.211C1417.77 453.657 1427.81 465.108 1440.5 473.564C1453.18 482.02 1467.81 486.248 1484.36 486.248ZM1772.82 533.285C1749.56 533.285 1728.6 529.233 1709.92 521.129C1691.25 513.026 1675.75 501.046 1663.42 485.191L1700.41 453.481C1710.98 465.813 1722.43 474.797 1734.76 480.435C1747.45 485.72 1761.72 488.362 1777.57 488.362C1783.92 488.362 1789.73 487.657 1795.01 486.248C1800.65 484.486 1805.41 482.02 1809.28 478.849C1813.51 475.678 1816.68 471.979 1818.8 467.75C1820.91 463.17 1821.97 458.237 1821.97 452.952C1821.97 443.792 1818.62 436.393 1811.93 430.755C1808.4 428.289 1802.77 425.646 1795.01 422.828C1787.62 419.657 1777.93 416.486 1765.95 413.314C1745.51 408.029 1728.77 402.04 1715.74 395.345C1702.7 388.651 1692.66 381.076 1685.61 372.62C1680.33 365.925 1676.45 358.702 1673.99 350.951C1671.52 342.847 1670.29 334.039 1670.29 324.526C1670.29 312.899 1672.75 302.329 1677.69 292.815C1682.97 282.95 1690.02 274.494 1698.83 267.447C1707.99 260.048 1718.56 254.411 1730.54 250.535C1742.87 246.659 1755.9 244.722 1769.65 244.722C1782.68 244.722 1795.54 246.483 1808.23 250.007C1821.26 253.53 1833.24 258.639 1844.17 265.333C1855.09 272.028 1864.25 279.955 1871.65 289.116L1840.47 323.469C1833.77 316.774 1826.37 310.961 1818.27 306.028C1810.52 300.743 1802.59 296.691 1794.49 293.872C1786.38 291.054 1778.98 289.644 1772.29 289.644C1764.89 289.644 1758.2 290.349 1752.21 291.758C1746.22 293.168 1741.11 295.282 1736.88 298.1C1733 300.919 1730.01 304.443 1727.89 308.671C1725.78 312.899 1724.72 317.655 1724.72 322.94C1725.08 327.521 1726.13 331.925 1727.89 336.153C1730.01 340.029 1732.83 343.376 1736.35 346.194C1740.23 349.013 1746.04 352.008 1753.79 355.179C1761.54 358.35 1771.41 361.345 1783.39 364.164C1801 368.744 1815.45 373.853 1826.72 379.49C1838.35 384.775 1847.51 390.941 1854.21 397.988C1861.25 404.682 1866.19 412.434 1869 421.242C1871.82 430.05 1873.23 439.916 1873.23 450.838C1873.23 466.693 1868.65 480.963 1859.49 493.647C1850.68 505.979 1838.7 515.668 1823.55 522.715C1808.4 529.762 1791.49 533.285 1772.82 533.285ZM2014.62 533.285C1994.89 533.285 1977.62 528.705 1962.82 519.544C1948.38 510.383 1937.1 497.523 1929 480.963C1921.25 464.403 1917.37 444.672 1917.37 421.771V250.535H1971.81V406.972C1971.81 423.18 1974.27 437.273 1979.21 449.253C1984.49 460.88 1991.89 469.864 2001.4 476.207C2011.27 482.549 2023.07 485.72 2036.81 485.72C2047.03 485.72 2056.37 484.134 2064.82 480.963C2073.28 477.44 2080.5 472.683 2086.49 466.693C2092.83 460.704 2097.77 453.481 2101.29 445.025C2104.81 436.569 2106.58 427.408 2106.58 417.543V250.535H2161.01V528H2106.58V469.864L2116.09 463.522C2111.86 476.559 2104.64 488.362 2094.42 498.932C2084.55 509.502 2072.75 517.958 2059.01 524.3C2045.27 530.29 2030.47 533.285 2014.62 533.285ZM2205.65 528V250.535H2260.62V337.738L2255.33 316.598C2259.21 303.209 2265.73 291.054 2274.89 280.131C2284.4 269.209 2295.15 260.577 2307.13 254.235C2319.46 247.893 2332.14 244.722 2345.18 244.722C2351.17 244.722 2356.81 245.25 2362.09 246.307C2367.73 247.364 2372.13 248.597 2375.3 250.007L2361.03 309.199C2356.81 307.437 2352.05 306.028 2346.76 304.971C2341.83 303.562 2336.9 302.857 2331.97 302.857C2322.45 302.857 2313.29 304.795 2304.48 308.671C2296.03 312.194 2288.45 317.303 2281.76 323.997C2275.42 330.339 2270.31 337.914 2266.43 346.723C2262.56 355.179 2260.62 364.516 2260.62 374.734V528H2205.65ZM2459.51 528V219.353C2459.51 203.498 2463.03 189.405 2470.08 177.073C2477.12 164.741 2486.81 155.052 2499.14 148.005C2511.48 140.958 2525.74 137.435 2541.95 137.435C2553.23 137.435 2563.8 139.549 2573.66 143.777C2583.53 148.005 2591.46 153.643 2597.45 160.689L2578.95 202.441C2574.37 198.213 2569.26 194.866 2563.62 192.4C2558.34 189.581 2553.23 188.172 2548.29 188.172C2540.9 188.172 2534.55 189.405 2529.27 191.871C2524.34 193.985 2520.64 197.508 2518.17 202.441C2515.7 207.021 2514.47 212.659 2514.47 219.353V528H2486.99C2482.41 528 2477.83 528 2473.25 528C2468.67 528 2464.09 528 2459.51 528ZM2415.11 305.5V255.292H2580V305.5H2415.11Z" fill="#58E5BB"/>
</g>
<defs>
<filter id="filter0_i_15999_2148" x="59.9964" y="264.176" width="276.57" height="256.591" filterUnits="userSpaceOnUse" color-interpolation-filters="sRGB">
<feFlood flood-opacity="0" result="BackgroundImageFix"/>
<feBlend mode="normal" in="SourceGraphic" in2="BackgroundImageFix" result="shape"/>
<feColorMatrix in="SourceAlpha" type="matrix" values="0 0 0 0 0 0 0 0 0 0 0 0 0 0 0 0 0 0 127 0" result="hardAlpha"/>
<feOffset dy="5.72789"/>
<feGaussianBlur stdDeviation="2.86395"/>
<feComposite in2="hardAlpha" operator="arithmetic" k2="-1" k3="1"/>
<feColorMatrix type="matrix" values="0 0 0 0 0 0 0 0 0 0 0 0 0 0 0 0 0 0 0.25 0"/>
<feBlend mode="normal" in2="shape" result="effect1_innerShadow_15999_2148"/>
</filter>
<filter id="filter1_i_15999_2148" x="12.1807" y="108.335" width="322.335" height="253.139" filterUnits="userSpaceOnUse" color-interpolation-filters="sRGB">
<feFlood flood-opacity="0" result="BackgroundImageFix"/>
<feBlend mode="normal" in="SourceGraphic" in2="BackgroundImageFix" result="shape"/>
<feColorMatrix in="SourceAlpha" type="matrix" values="0 0 0 0 0 0 0 0 0 0 0 0 0 0 0 0 0 0 127 0" result="hardAlpha"/>
<feOffset dy="5.72789"/>
<feGaussianBlur stdDeviation="2.86395"/>
<feComposite in2="hardAlpha" operator="arithmetic" k2="-1" k3="1"/>
<feColorMatrix type="matrix" values="0 0 0 0 0 0 0 0 0 0 0 0 0 0 0 0 0 0 0.25 0"/>
<feBlend mode="normal" in2="shape" result="effect1_innerShadow_15999_2148"/>
</filter>
<filter id="filter2_i_15999_2148" x="105.053" y="421.158" width="227.12" height="252.419" filterUnits="userSpaceOnUse" color-interpolation-filters="sRGB">
<feFlood flood-opacity="0" result="BackgroundImageFix"/>
<feBlend mode="normal" in="SourceGraphic" in2="BackgroundImageFix" result="shape"/>
<feColorMatrix in="SourceAlpha" type="matrix" values="0 0 0 0 0 0 0 0 0 0 0 0 0 0 0 0 0 0 127 0" result="hardAlpha"/>
<feOffset dy="5.72789"/>
<feGaussianBlur stdDeviation="2.86395"/>
<feComposite in2="hardAlpha" operator="arithmetic" k2="-1" k3="1"/>
<feColorMatrix type="matrix" values="0 0 0 0 0 0 0 0 0 0 0 0 0 0 0 0 0 0 0.25 0"/>
<feBlend mode="normal" in2="shape" result="effect1_innerShadow_15999_2148"/>
</filter>
<clipPath id="clip0_15999_2148">
<rect width="2620" height="704" fill="white"/>
</clipPath>
</defs>
</svg>
