<svg xmlns="http://www.w3.org/2000/svg" width="600" height="400" viewBox="0 0 600 400"><rect width="100%" height="100%" fill="#444444"/><path fill="#FF6B35" d="m145.35 185.05-1.74 3.3q-.32.55-.67.79-.35.25-.87.25-.54 0-1.18-.4t-1.52-.9q-.89-.49-2.07-.9-1.18-.4-2.79-.4-1.46 0-2.55.35t-1.83.98q-.75.62-1.11 1.49t-.36 1.91q0 1.33.74 2.21.74.89 1.96 1.51 1.22.63 2.78 1.12t3.2 1.05 3.2 1.3 2.78 1.87q1.22 1.14 1.96 2.77.74 1.64.74 3.98 0 2.55-.87 4.77-.87 2.23-2.54 3.88-1.68 1.65-4.1 2.6t-5.54.95q-1.79 0-3.53-.35-1.75-.36-3.34-1.01-1.6-.65-3.01-1.56-1.4-.91-2.49-2.02l2.05-3.36q.26-.36.68-.61.41-.25.88-.25.65 0 1.4.54.76.53 1.8 1.18t2.43 1.18q1.39.54 3.34.54 2.99 0 4.63-1.42t1.64-4.07q0-1.48-.74-2.42-.75-.93-1.97-1.57t-2.78-1.08-3.17-.96-3.17-1.25-2.79-1.9q-1.22-1.17-1.96-2.92-.74-1.76-.74-4.33 0-2.06.82-4.01t2.38-3.45q1.56-1.51 3.85-2.42 2.28-.91 5.25-.91 3.33 0 6.13 1.04 2.81 1.04 4.79 2.91m26.54 10.69-1.69 2.34q-.28.36-.55.57-.28.21-.8.21-.49 0-.96-.3t-1.12-.68-1.54-.68q-.9-.29-2.23-.29-1.69 0-2.96.61-1.28.61-2.12 1.75-.85 1.15-1.26 2.77-.42 1.63-.42 3.68 0 2.13.46 3.8.45 1.66 1.31 2.79t2.08 1.72q1.22.58 2.76.58 1.53 0 2.48-.38.95-.37 1.6-.83.65-.45 1.13-.83t1.08-.38q.78 0 1.17.6l1.84 2.34q-1.06 1.25-2.31 2.09-1.25.85-2.59 1.36-1.34.5-2.75.71-1.42.21-2.82.21-2.47 0-4.66-.92-2.18-.93-3.82-2.69-1.64-1.77-2.59-4.33t-.95-5.84q0-2.94.85-5.45.84-2.51 2.48-4.34t4.06-2.87 5.56-1.04q2.99 0 5.24.96t4.04 2.76m10.69-15.27v14.82q1.56-1.45 3.43-2.36t4.4-.91q2.18 0 3.87.74t2.82 2.08 1.72 3.2q.58 1.86.58 4.09v16.98h-6.42v-16.98q0-2.44-1.12-3.78t-3.4-1.34q-1.67 0-3.12.75-1.46.76-2.76 2.06v19.29h-6.42v-38.64zm27.98 22.23h12.11q0-1.24-.35-2.35-.35-1.1-1.05-1.94-.7-.83-1.78-1.31t-2.51-.48q-2.78 0-4.38 1.59-1.6 1.58-2.04 4.49m16.38 3.88h-16.51q.15 2.05.72 3.55.58 1.49 1.51 2.47.94.97 2.23 1.45 1.28.48 2.84.48t2.69-.36 1.98-.81q.84-.44 1.48-.8.64-.37 1.24-.37.8 0 1.19.6l1.85 2.34q-1.07 1.25-2.39 2.09-1.33.85-2.77 1.36-1.45.5-2.94.71-1.5.21-2.9.21-2.78 0-5.17-.92-2.4-.93-4.16-2.73-1.77-1.81-2.79-4.48-1.01-2.66-1.01-6.17 0-2.73.88-5.14.89-2.4 2.54-4.18t4.03-2.82 5.37-1.04q2.52 0 4.65.8 2.13.81 3.67 2.36 1.53 1.54 2.4 3.79t.87 5.14q0 1.45-.31 1.96t-1.19.51m23.06 4.63v-11.96q-1.09-1.33-2.38-1.88-1.29-.54-2.77-.54-1.46 0-2.63.54-1.17.55-2 1.65-.83 1.11-1.27 2.81-.44 1.71-.44 4.02 0 2.34.37 3.97.38 1.62 1.08 2.65.7 1.02 1.72 1.48 1.01.45 2.26.45 2 0 3.41-.83 1.4-.83 2.65-2.36m0-30.74h6.42v38.64h-3.93q-1.27 0-1.61-1.17l-.54-2.57q-1.62 1.84-3.71 2.99-2.09 1.14-4.87 1.14-2.19 0-4.01-.91t-3.13-2.64-2.03-4.28q-.71-2.54-.71-5.82 0-2.96.8-5.51.81-2.55 2.32-4.42 1.5-1.87 3.61-2.93 2.11-1.05 4.73-1.05 2.24 0 3.82.7 1.59.7 2.84 1.9zm29.33 11.96h6.42v26.68h-3.93q-1.27 0-1.61-1.17l-.44-2.13q-1.64 1.66-3.62 2.69-1.97 1.03-4.65 1.03-2.18 0-3.86-.75-1.68-.74-2.82-2.09-1.15-1.35-1.73-3.21-.59-1.86-.59-4.09v-16.96h6.43v16.96q0 2.44 1.13 3.78t3.39 1.34q1.66 0 3.12-.74t2.76-2.04zm12.84-11.96h6.42v38.64h-6.42zm17.91 22.23h12.12q0-1.24-.35-2.35-.35-1.1-1.05-1.94-.71-.83-1.78-1.31-1.08-.48-2.51-.48-2.79 0-4.38 1.59-1.6 1.58-2.05 4.49m16.38 3.88h-16.51q.16 2.05.73 3.55.57 1.49 1.51 2.47.94.97 2.22 1.45 1.29.48 2.85.48t2.69-.36 1.98-.81q.84-.44 1.48-.8.64-.37 1.23-.37.81 0 1.2.6l1.85 2.34q-1.07 1.25-2.4 2.09-1.32.85-2.76 1.36-1.45.5-2.94.71-1.5.21-2.9.21-2.78 0-5.18-.92-2.39-.93-4.16-2.73-1.76-1.81-2.78-4.48-1.01-2.66-1.01-6.17 0-2.73.88-5.14.89-2.4 2.54-4.18t4.03-2.82 5.37-1.04q2.52 0 4.65.8 2.13.81 3.67 2.36 1.53 1.54 2.4 3.79t.87 5.14q0 1.45-.31 1.96t-1.2.51m11.99-12.53.39 3.01q1.25-2.39 2.96-3.76 1.72-1.36 4.06-1.36 1.85 0 2.96.81l-.41 4.81q-.13.46-.38.66-.25.19-.66.19-.39 0-1.16-.13t-1.49-.13q-1.07 0-1.9.32-.83.31-1.5.89-.66.59-1.17 1.42-.5.83-.95 1.9v16.43h-6.42v-26.68h3.77q.99 0 1.38.35.39.36.52 1.27m53.2 16.19q.57 0 1.01.45l2.76 2.99q-2.29 2.83-5.63 4.34t-8.02 1.51q-4.19 0-7.53-1.43t-5.71-3.98q-2.36-2.55-3.62-6.09-1.27-3.53-1.27-7.72 0-4.24 1.36-7.76 1.35-3.52 3.81-6.07 2.45-2.55 5.86-3.97 3.4-1.41 7.54-1.41 4.11 0 7.29 1.35 3.19 1.35 5.42 3.54l-2.34 3.25q-.21.31-.53.54-.33.24-.9.24-.39 0-.8-.23-.42-.22-.91-.54-.5-.33-1.15-.72t-1.51-.71q-.85-.33-1.98-.55-1.14-.22-2.62-.22-2.52 0-4.61.9-2.1.9-3.6 2.6-1.51 1.7-2.34 4.16-.84 2.46-.84 5.6 0 3.17.9 5.64t2.43 4.16q1.54 1.69 3.62 2.59t4.47.9q1.43 0 2.59-.16 1.15-.15 2.13-.49.97-.34 1.84-.87.87-.54 1.73-1.32.26-.23.55-.37.28-.15.6-.15m7.64-29.77h6.42v38.64h-6.42zm26.94 31.75v-4.5q-2.79.13-4.68.48-1.9.35-3.05.9-1.14.55-1.63 1.27-.5.73-.5 1.59 0 1.69 1 2.42t2.62.73q1.97 0 3.42-.72 1.44-.71 2.82-2.17m-13.58-14.01-1.14-2.06q4.6-4.21 11.08-4.21 2.34 0 4.18.77 1.85.76 3.12 2.13 1.28 1.36 1.94 3.26t.66 4.16v16.85h-2.91q-.91 0-1.4-.27-.5-.28-.78-1.11l-.58-1.92q-1.01.91-1.97 1.6t-2 1.15q-1.04.47-2.23.72-1.18.25-2.61.25-1.69 0-3.12-.46-1.43-.45-2.47-1.36t-1.61-2.27q-.57-1.35-.57-3.14 0-1.02.33-2.02.34-1 1.11-1.91t1.99-1.71q1.22-.81 3-1.41t4.15-.97q2.36-.38 5.41-.46v-1.56q0-2.68-1.15-3.96-1.14-1.29-3.3-1.29-1.56 0-2.59.36-1.02.37-1.8.82-.78.46-1.42.82-.64.37-1.42.37-.67 0-1.14-.36-.47-.35-.76-.81m43.61-2.89-1.46 2.31q-.26.42-.55.59-.28.17-.72.17-.47 0-1-.26-.54-.26-1.24-.59-.7-.32-1.6-.58t-2.12-.26q-1.9 0-2.97.8-1.08.81-1.08 2.11 0 .86.56 1.44.55.59 1.48 1.03.92.44 2.09.79t2.38.77 2.38.95 2.09 1.35 1.48 1.96q.56 1.15.56 2.76 0 1.92-.69 3.55-.69 1.62-2.04 2.81-1.35 1.18-3.34 1.84-1.99.67-4.59.67-1.38 0-2.69-.25t-2.52-.69-2.24-1.04q-1.02-.6-1.8-1.3l1.48-2.44q.28-.45.67-.68t.99-.23 1.13.33q.54.34 1.24.73t1.65.73 2.4.34q1.15 0 1.97-.28.82-.27 1.35-.71t.78-1.03q.25-.58.25-1.21 0-.93-.56-1.53t-1.48-1.04q-.93-.44-2.11-.79t-2.42-.77q-1.23-.42-2.42-.98-1.18-.55-2.1-1.41-.93-.86-1.48-2.11-.56-1.25-.56-3.01 0-1.64.65-3.12.65-1.49 1.91-2.59 1.26-1.11 3.14-1.77 1.89-.66 4.36-.66 2.75 0 5.02.91 2.26.91 3.77 2.39m22.85 0-1.46 2.31q-.26.42-.54.59-.29.17-.73.17-.47 0-1-.26t-1.24-.59q-.7-.32-1.59-.58-.9-.26-2.12-.26-1.9 0-2.98.8-1.08.81-1.08 2.11 0 .86.56 1.44.56.59 1.48 1.03t2.09.79 2.38.77 2.38.95 2.1 1.35q.92.82 1.48 1.96.56 1.15.56 2.76 0 1.92-.69 3.55-.69 1.62-2.04 2.81-1.36 1.18-3.34 1.84-1.99.67-4.59.67-1.38 0-2.69-.25-1.32-.25-2.53-.69t-2.23-1.04q-1.03-.6-1.81-1.3l1.48-2.44q.29-.45.68-.68t.99-.23q.59 0 1.13.33.53.34 1.23.73t1.65.73 2.41.34q1.14 0 1.96-.28.82-.27 1.35-.71.54-.44.78-1.03.25-.58.25-1.21 0-.93-.56-1.53t-1.48-1.04-2.11-.79q-1.18-.35-2.41-.77-1.24-.42-2.42-.98-1.19-.55-2.11-1.41t-1.48-2.11-.56-3.01q0-1.64.65-3.12.65-1.49 1.91-2.59 1.26-1.11 3.15-1.77 1.88-.66 4.35-.66 2.76 0 5.02.91t3.77 2.39"/></svg>